<svg xmlns="http://www.w3.org/2000/svg" viewBox="0 0 109.46 103.42"><defs><style>.cls-1{fill:#fcfdfe;stroke:#1d1d1b;stroke-miterlimit:10;stroke-width:2px;}</style></defs><g id="Lag_2" data-name="Lag 2"><g id="Lag_2-2" data-name="Lag 2"><rect class="cls-1" x="1.01" y="34.93" width="107.45" height="67.49"/><path class="cls-1" d="M1.11,34.91v0H108.36v-.11L54.8,1.18Z"/><polygon class="cls-1" points="89.78 47.56 54.73 71.36 19.68 47.42 19.68 16.95 89.78 16.95 89.78 47.56"/><path class="cls-1" d="M59.43,44.16H28a3.74,3.74,0,0,0-3.74,3.73v1.88c.5.41,1,.85,1.44,1.31s1,.81,1.62,1.29,1.06.83,1.66,1.29l.9.71.58.46c1.13.82,2.11,1.5,3.29,2.23l2.86,1.79H59.43a3.73,3.73,0,0,0,3.73-3.73V47.89A3.73,3.73,0,0,0,59.43,44.16Z"/><path class="cls-1" d="M28.78,53c11.06.22,23.06.22,33.75,0"/><rect class="cls-1" x="27.06" y="43.1" width="11.12" height="9.92" rx="3.08"/><rect class="cls-1" x="38.18" y="43.1" width="11.12" height="9.92" rx="3.08"/><rect class="cls-1" x="49.3" y="43.1" width="11.12" height="9.92" rx="3.08"/><rect class="cls-1" x="58.39" y="49.79" width="6.04" height="6.04" rx="2.42"/><path class="cls-1" d="M27.36,52.37l1.25,1V52.21a2.42,2.42,0,0,0-2.42-2.42H25a2.12,2.12,0,0,0-.57.08c.45.38.88.79,1.32,1.21S26.77,51.89,27.36,52.37Z"/><line class="cls-1" x1="59.43" y1="58.85" x2="59.43" y2="63.09"/><path class="cls-1" d="M108.3,34.78C90.84,47.4,71.84,58.94,54.73,71.36"/><line class="cls-1" x1="1.01" y1="34.67" x2="54.73" y2="71.36"/><path class="cls-1" d="M54.73,68.67,1,102.4v0H108.29v-.11Z"/><line class="cls-1" x1="24.3" y1="22.58" x2="64.43" y2="22.58"/><line class="cls-1" x1="24.3" y1="29.33" x2="53.19" y2="29.33"/><line class="cls-1" x1="24.3" y1="37.11" x2="64.43" y2="37.11"/><line class="cls-1" x1="84.93" y1="23.21" x2="68.62" y2="39.52"/><circle class="cls-1" cx="72.25" cy="26.58" r="3.34"/><circle class="cls-1" cx="81.85" cy="36.18" r="3.34"/></g></g></svg>