<svg xmlns="http://www.w3.org/2000/svg" viewBox="0 0 139.16 66.94"><defs><style>.cls-1{fill:#04161d;}.cls-2{fill:#f07e22;}.cls-3{fill:#c52021;}.cls-4{fill:#07a338;}.cls-5{fill:#0094c7;}</style></defs><g id="Lag_2" data-name="Lag 2"><g id="Lag_2-2" data-name="Lag 2"><path class="cls-1" d="M0,23.16l6.49-.86c.94,2.8,3.31,4.3,6.66,4.3s5.37-1.38,5.33-3.7C18.39,16.8,1.12,20.8,1.12,9.11,1.12,3.65,5.76,0,12.42,0s11.3,2.88,12.5,8.42l-6.23.86c-1-2.49-3-3.78-6.06-3.78S7.73,6.83,7.73,9c0,6.62,17.58,1.89,17.58,13.71,0,5.63-4.77,9.32-12.12,9.32C6.32,32,1.33,28.83,0,23.16Z"/><path class="cls-1" d="M34.12,6.53h-7.6V.47H48.43V6.53H40.91v25H34.12Z"/><path class="cls-1" d="M51.48,17.15V.47h6.79V17.1c0,6.23,1.94,8.81,6.41,8.81S71,23.33,71,17.15V.47h6.83V17.19c0,10-4.43,14.82-13.19,14.82S51.48,27.29,51.48,17.15Z"/><path class="cls-1" d="M82.86.47h8.9C104.35.47,109.25,5.8,109.25,16s-4.9,15.55-17.49,15.55h-8.9ZM92,25.53c7.83,0,10.36-3.06,10.36-9.54S99.84,6.45,92,6.45H89.65V25.53Z"/><path class="cls-1" d="M120.17,23.08,108.09.47h7.56l7.91,15.6L131.51.47h7.65L127,23.08v8.5h-6.79Z"/><path class="cls-1" d="M54.24,35.31H74.82v6.06H61v6.7h13v5.29H61v7H74.82v6.05H54.24Z"/><path class="cls-1" d="M77.92,51c0-11,7.3-16,14.87-16,5.8,0,12.2,2.87,14,11.12l-6.66,1.17c-1.08-4.13-4-6.06-7.4-6.06-4.64,0-7.82,3.69-7.82,9.79s3.14,9.76,7.82,9.76c3.44,0,6.41-2,7.4-6.23l6.7,1.16c-1.76,8.38-8.21,11.3-14,11.3C85.22,66.94,77.92,62.3,77.92,51Z"/><path class="cls-1" d="M109.64,50.91c0-11.09,7-15.94,14.78-15.94s14.74,4.85,14.74,15.94c0,11.3-7,16-14.82,16S109.64,62.21,109.64,50.91Zm22.73,0c0-6.27-3.18-9.88-8-9.88s-8.08,3.61-8.08,9.88c0,6.45,3.09,9.93,8,9.93S132.37,57.36,132.37,50.91Z"/><rect class="cls-2" x="15.8" y="35.31" width="5.81" height="31.11"/><rect class="cls-3" y="35.31" width="2.15" height="31.11"/><path class="cls-1" d="M32.49,35.31H23.7V66.42h8.79C45.08,66.42,50,61,50,50.87S45.08,35.31,32.49,35.31Zm.25,25.06H30.38V41.28H32.7c7.87,0,10.4,3.1,10.4,9.55S40.57,60.37,32.74,60.37Z"/><rect class="cls-4" x="9.43" y="35.31" width="4.46" height="31.11"/><rect class="cls-5" x="4.07" y="35.31" width="3.44" height="31.11"/></g></g></svg>